<?xml version="1.0" standalone="no"?>
<!DOCTYPE svg PUBLIC "-//W3C//DTD SVG 20010904//EN"
 "http://www.w3.org/TR/2001/REC-SVG-20010904/DTD/svg10.dtd">
<svg version="1.0" xmlns="http://www.w3.org/2000/svg"
 width="152.000000pt" height="152.000000pt" viewBox="0 0 152.000000 152.000000"
 preserveAspectRatio="xMidYMid meet">
<metadata>
Created by potrace 1.11, written by Peter Selinger 2001-2013
</metadata>
<g transform="translate(0.000000,152.000000) scale(0.100000,-0.100000)"
fill="#000000" stroke="none">
<path d="M606 1504 c-226 -49 -423 -202 -529 -409 -77 -154 -96 -381 -45 -551
81 -270 313 -480 588 -532 69 -13 263 -7 330 11 214 57 395 205 491 402 59
122 77 207 74 350 -2 66 -5 127 -7 135 -37 140 -84 237 -164 334 -99 120 -244
213 -394 251 -89 23 -257 27 -344 9z"/>
</g>
</svg>
