<?xml version="1.0" standalone="no"?>
<!DOCTYPE svg PUBLIC "-//W3C//DTD SVG 1.1//EN" "http://www.w3.org/Graphics/SVG/1.1/DTD/svg11.dtd" >
<svg xmlns="http://www.w3.org/2000/svg">
<metadata>Generated by IcoMoon</metadata>
<defs>
<font id="icomoon" horiz-adv-x="1024">
<font-face units-per-em="1024" ascent="960" descent="-64" />
<missing-glyph horiz-adv-x="1024" />
<glyph unicode="&#x20;" horiz-adv-x="512" d="" />
<glyph unicode="&#xe900;" glyph-name="bookmark-filled" d="M768 917.333h-512c-46.933 0-85.333-38.4-85.333-85.333v-810.667c0-17.067 8.533-34.133 25.6-38.4s34.133-4.267 46.933 8.533l268.8 268.8 268.8-268.8c8.533-8.533 17.067-12.8 29.867-12.8 4.267 0 12.8 0 17.067 4.267 17.067 8.533 25.6 21.333 25.6 38.4v810.667c0 46.933-38.4 85.333-85.333 85.333v0z" />
<glyph unicode="&#xe901;" glyph-name="heart-filled" d="M746.667 960c-98.133 0-183.467-51.2-234.667-128-51.2 76.8-136.533 128-234.667 128-153.6 0-277.333-123.733-277.333-277.333 0-81.067 25.6-162.133 85.333-238.933 46.933-64 110.933-123.733 170.667-179.2 110.933-102.4 213.333-200.533 213.333-328.533h85.333c0 128 102.4 226.133 213.333 328.533 59.733 55.467 123.733 115.2 170.667 179.2 55.467 76.8 85.333 157.867 85.333 238.933 0 153.6-123.733 277.333-277.333 277.333z" />
<glyph unicode="&#xe902;" glyph-name="heart2-filled" d="M746.667 917.333c-72.533 0-140.8-25.6-196.267-76.8-17.067-12.8-29.867-29.867-38.4-46.933-12.8 17.067-25.6 29.867-38.4 46.933-55.467 46.933-123.733 76.8-196.267 76.8-153.6 0-277.333-123.733-277.333-277.333 0-93.867 25.6-183.467 81.067-277.333 42.667-68.267 98.133-140.8 170.667-204.8 119.467-110.933 238.933-174.933 243.2-174.933 4.267-4.267 8.533-4.267 17.067-4.267s12.8 0 21.333 4.267c4.267 4.267 123.733 64 243.2 174.933 72.533 64 128 136.533 170.667 204.8 51.2 89.6 81.067 183.467 81.067 277.333-4.267 153.6-128 277.333-281.6 277.333z" />
<glyph unicode="&#xe903;" glyph-name="star-filled" d="M1024 541.867c-4.267 17.067-17.067 29.867-34.133 29.867l-307.2 64-128 298.667c-8.533 17.067-25.6 25.6-42.667 25.6s-34.133-8.533-38.4-25.6l-128-298.667-311.467-59.733c-17.067-4.267-29.867-17.067-34.133-34.133s0-34.133 12.8-42.667l234.667-196.267-76.8-315.733c-4.267-17.067 0-34.133 17.067-42.667 12.8-8.533 34.133-12.8 46.933-4.267l277.333 157.867 277.333-157.867c8.533-4.267 12.8-4.267 21.333-4.267s17.067 4.267 25.6 8.533c12.8 8.533 21.333 25.6 17.067 42.667l-76.8 315.733 234.667 196.267c8.533 12.8 17.067 29.867 12.8 42.667z" />
<glyph unicode="&#xe904;" glyph-name="thumbs-down-filled" d="M896 533.333c0 21.333-4.267 46.933-17.067 64 12.8 17.067 17.067 42.667 17.067 64 0 38.4-17.067 72.533-46.933 98.133 4.267 8.533 4.267 21.333 4.267 29.867 0 72.533-55.467 128-128 128h-115.2c-123.733 0-247.467-29.867-354.133-85.333 0 0 0 0 0 0-81.067-42.667-128-123.733-128-213.333v-149.333c0-38.4 8.533-72.533 25.6-106.667s38.4-59.733 68.267-85.333c38.4-29.867 76.8-51.2 115.2-68.267 68.267-34.133 123.733-64 174.933-157.867 8.533-25.6 25.6-46.933 46.933-59.733s46.933-21.333 72.533-17.067c29.867 4.267 55.467 25.6 72.533 55.467s25.6 64 25.6 106.667c0 42.667-8.533 89.6-34.133 136.533h72.533c72.533 0 128 55.467 128 128 0 21.333-4.267 46.933-17.067 64 12.8 25.6 17.067 46.933 17.067 68.267v0z" />
<glyph unicode="&#xe905;" glyph-name="thumbs-down2-filled" d="M938.667 733.867c-17.067 38.4-42.667 72.533-68.267 93.867-34.133 29.867-76.8 42.667-119.467 42.667-128 0-230.4-25.6-332.8-76.8v0c-17.067 0-29.867-8.533-38.4-17.067-12.8 34.133-42.667 55.467-81.067 55.467h-234.667c-12.8 0-21.333-8.533-21.333-21.333v-512c0-12.8 8.533-21.333 21.333-21.333h234.667c34.133 0 64 21.333 76.8 46.933 4.267 0 4.267-4.267 8.533-4.267 0 0 0 0 0 0 55.467-38.4 209.067-162.133 247.467-247.467 12.8-29.867 42.667-46.933 72.533-51.2 0 0 4.267 0 4.267 0 29.867 0 59.733 17.067 72.533 42.667 17.067 25.6 25.6 55.467 25.6 85.333 0 72.533-21.333 132.267-46.933 174.933h93.867c34.133 0 93.867 12.8 115.2 102.4 12.8 42.667 12.8 93.867 12.8 128 0 42.667-12.8 119.467-42.667 179.2v0zM298.667 362.667h-213.333v384h213.333v-128c0 0 0-4.267 0-8.533v-247.467zM213.333 490.667c-25.6 0-42.667-17.067-42.667-42.667s17.067-42.667 42.667-42.667 42.667 17.067 42.667 42.667-17.067 42.667-42.667 42.667zM213.333 448v0 0z" />
<glyph unicode="&#xe906;" glyph-name="thumbs-up-filled" d="M878.933 426.667c12.8 17.067 17.067 42.667 17.067 64 0 72.533-55.467 128-128 128h-76.8c25.6 42.667 34.133 93.867 34.133 136.533s-8.533 81.067-25.6 106.667c-17.067 29.867-42.667 46.933-72.533 55.467-25.6 4.267-51.2 0-72.533-17.067-21.333-12.8-38.4-34.133-46.933-59.733-46.933-93.867-102.4-123.733-174.933-157.867-34.133-17.067-72.533-38.4-110.933-68.267-29.867-21.333-51.2-51.2-68.267-85.333-17.067-29.867-25.6-68.267-25.6-102.4v-149.333c0-89.6 46.933-170.667 128-209.067 0 0 0 0 0 0 110.933-55.467 230.4-85.333 354.133-85.333h115.2c72.533 0 128 55.467 128 128 0 8.533 0 21.333-4.267 29.867 29.867 25.6 46.933 59.733 46.933 98.133 0 21.333-4.267 46.933-17.067 64 12.8 17.067 17.067 42.667 17.067 64s-4.267 42.667-17.067 59.733v0z" />
<glyph unicode="&#xe907;" glyph-name="thumbs-up2-filled" d="M968.533 473.6c-21.333 89.6-81.067 102.4-115.2 102.4h-89.6c25.6 42.667 46.933 102.4 46.933 174.933 0 29.867-8.533 59.733-25.6 85.333-17.067 29.867-46.933 42.667-81.067 42.667s-59.733-21.333-72.533-51.2c-38.4-89.6-192-213.333-247.467-251.733 0 0 0 0 0 0-4.267 0-4.267-4.267-8.533-4.267-12.8 25.6-42.667 46.933-76.8 46.933h-234.667c-12.8 0-21.333-8.533-21.333-21.333v-512c0-12.8 8.533-21.333 21.333-21.333h234.667c38.4 0 68.267 21.333 81.067 55.467 8.533-8.533 21.333-17.067 34.133-21.333v0c102.4-51.2 204.8-76.8 332.8-76.8 46.933 0 85.333 17.067 119.467 42.667 25.6 21.333 51.2 55.467 68.267 93.867 29.867 64 42.667 136.533 42.667 179.2 4.267 38.4 4.267 89.6-8.533 136.533v0zM298.667 149.333h-213.333v384h213.333v-384zM213.333 277.333c-25.6 0-42.667-21.333-42.667-42.667s17.067-42.667 42.667-42.667 42.667 21.333 42.667 42.667-17.067 42.667-42.667 42.667zM213.333 234.667v0 0z" />
<glyph unicode="&#xe9bb;" glyph-name="toggle-off" d="M924 668c-64.533 64.533-150.133 100-241.333 100h-341.333c-91.2 0-176.933-35.467-241.333-100-64.533-64.4-100-150.133-100-241.333s35.467-176.933 100-241.333c64.533-64.533 150.133-100 241.333-100h341.333c91.2 0 176.933 35.467 241.333 100 64.533 64.533 100 150.133 100 241.333s-35.467 176.933-100 241.333zM682.667 170.667h-341.333c-141.2 0-256 114.8-256 256s114.8 256 256 256h341.333c141.2 0 256-114.8 256-256s-114.8-256-256-256zM341.333 640c-117.6 0-213.333-95.733-213.333-213.333s95.733-213.333 213.333-213.333 213.333 95.733 213.333 213.333c0 117.6-95.733 213.333-213.333 213.333zM341.333 256c-94.133 0-170.667 76.533-170.667 170.667s76.533 170.667 170.667 170.667 170.667-76.533 170.667-170.667c0-94.133-76.533-170.667-170.667-170.667z" />
<glyph unicode="&#xe9bc;" glyph-name="toggle-on" d="M924 668c-64.533 64.533-150.133 100-241.333 100h-341.333c-91.2 0-176.933-35.467-241.333-100-64.533-64.4-100-150.133-100-241.333s35.467-176.933 100-241.333c64.533-64.533 150.133-100 241.333-100h341.333c91.2 0 176.933 35.467 241.333 100 64.533 64.533 100 150.133 100 241.333s-35.467 176.933-100 241.333zM682.667 170.667h-341.333c-141.2 0-256 114.8-256 256s114.8 256 256 256h341.333c141.2 0 256-114.8 256-256s-114.8-256-256-256zM682.667 640c-117.6 0-213.333-95.733-213.333-213.333s95.733-213.333 213.333-213.333 213.333 95.733 213.333 213.333c0 117.6-95.733 213.333-213.333 213.333zM682.667 256c-94.133 0-170.667 76.533-170.667 170.667s76.533 170.667 170.667 170.667 170.667-76.533 170.667-170.667c0-94.133-76.533-170.667-170.667-170.667z" />
<glyph unicode="&#xe9bd;" glyph-name="toggle-on2" d="M810.667 640h-302.933c-56.133 55.067-130.267 85.333-209.067 85.333-79.733 0-154.8-31.067-211.2-87.467s-87.467-131.467-87.467-211.2c0-79.733 31.067-154.8 87.467-211.2s131.467-87.467 211.2-87.467c78.8 0 152.933 30.267 209.067 85.333h302.933c117.6 0 213.333 95.733 213.333 213.333s-95.733 213.333-213.333 213.333zM298.667 213.334c-117.6 0-213.333 95.733-213.333 213.333s95.733 213.333 213.333 213.333 213.333-95.733 213.333-213.333c0-117.6-95.733-213.333-213.333-213.333zM810.667 256h-266.8c34.8 49.733 53.467 108.8 53.467 170.667s-18.667 120.933-53.467 170.667h266.8c94.133 0 170.667-76.533 170.667-170.667s-76.533-170.667-170.667-170.667zM128 426.667h42.667c0 70.533 57.467 128 128 128v42.667c-94.133 0-170.667-76.533-170.667-170.667z" />
<glyph unicode="&#xe9be;" glyph-name="toggle-off2" d="M936.533 637.867c-56.4 56.4-131.467 87.467-211.2 87.467-78.8 0-152.8-30.267-209.067-85.333h-302.933c-117.6 0-213.333-95.733-213.333-213.333s95.733-213.333 213.333-213.333h302.933c56.133-55.067 130.267-85.333 209.067-85.333 79.733 0 154.8 31.067 211.2 87.467s87.467 131.467 87.467 211.2c0 79.733-31.067 154.8-87.467 211.2zM42.667 426.667c0 94.133 76.533 170.667 170.667 170.667h266.8c-34.8-49.733-53.467-108.8-53.467-170.667s18.667-120.933 53.467-170.667h-266.8c-94.133 0-170.667 76.533-170.667 170.667zM725.333 213.334c-117.6 0-213.333 95.733-213.333 213.333s95.733 213.333 213.333 213.333 213.333-95.733 213.333-213.333c0-117.6-95.733-213.333-213.333-213.333zM554.667 426.667h42.667c0 70.533 57.467 128 128 128v42.667c-94.133 0-170.667-76.533-170.667-170.667z" />
<glyph unicode="&#xe9bf;" glyph-name="switch-off" d="M938.667 512h-42.667c0 69.067-18.533 136.667-53.6 195.733-34 57.333-82.533 105.067-140.4 138.133-15.2 8.667-34.133 7.2-47.733-3.733l-199.867-159.467h-258.933c-17.333 0-33.067-10.533-39.6-26.667-18.533-45.733-27.867-94.133-27.867-144h-42.667c-47.067 0-85.333-38.267-85.333-85.333v-106.667c0-11.733 9.6-21.333 21.333-21.333h981.333c11.733 0 21.333 9.6 21.333 21.333v106.667c0 47.067-38.267 85.333-85.333 85.333zM225.6 597.334h243.733c9.733 0 19.067 3.333 26.667 9.333l187.733 149.867c78.933-55.733 126.933-146.933 126.933-244.533h-597.333c0 29.2 4.133 57.867 12.267 85.333zM85.333 341.334v85.333h853.333v-85.333h-853.333zM64 128c-35.333 0-64-28.667-64-64s28.667-64 64-64 64 28.667 64 64-28.667 64-64 64zM64 42.667c-11.733 0-21.333 9.6-21.333 21.333s9.6 21.333 21.333 21.333 21.333-9.6 21.333-21.333-9.6-21.333-21.333-21.333zM170.667 149.334v-149.333h42.667v85.333h42.667v42.667h-42.667v21.333c0 11.733 9.6 21.333 21.333 21.333h21.333v42.667h-21.333c-35.333 0-64-28.667-64-64zM298.667 149.334v-149.333h42.667v85.333h42.667v42.667h-42.667v21.333c0 11.733 9.6 21.333 21.333 21.333h21.333v42.667h-21.333c-35.333 0-64-28.667-64-64z" />
<glyph unicode="&#xe9c0;" glyph-name="switch-on" d="M938.667 512h-42.667c0 49.867-9.333 98.267-27.867 144-6.533 16.133-22.133 26.667-39.6 26.667h-258.933l-199.733 159.467c-13.6 10.933-32.533 12.4-47.733 3.733-57.867-33.067-106.4-80.8-140.4-138.133-35.2-59.067-53.733-126.667-53.733-195.733h-42.667c-47.067 0-85.333-38.267-85.333-85.333v-106.667c0-11.733 9.6-21.333 21.333-21.333h981.333c11.733 0 21.333 9.6 21.333 21.333v106.667c0 47.067-38.267 85.333-85.333 85.333zM340.4 756.534l187.6-149.867c7.6-6 16.933-9.333 26.667-9.333h243.733c8.133-27.467 12.267-56.133 12.267-85.333h-597.333c0 97.6 48 188.8 127.067 244.533zM85.333 341.334v85.333h853.333v-85.333h-853.333zM789.333 128c-35.333 0-64-28.667-64-64s28.667-64 64-64 64 28.667 64 64-28.667 64-64 64zM789.333 42.667c-11.733 0-21.333 9.6-21.333 21.333s9.6 21.333 21.333 21.333 21.333-9.6 21.333-21.333-9.6-21.333-21.333-21.333zM960 128c-7.467 0-14.667-1.333-21.333-3.6v3.6h-42.667v-128h42.667v64c0 11.733 9.6 21.333 21.333 21.333s21.333-9.6 21.333-21.333v-64h42.667v64c0 35.333-28.667 64-64 64z" />
<glyph unicode="&#xe9e7;" glyph-name="heart" d="M746.667 938.667c-98.667 0-185.467-51.867-234.667-129.733-49.2 77.867-136 129.733-234.667 129.733-152.933 0-277.333-124.4-277.333-277.333 0-82.267 27.467-160.267 83.867-238.133 47.733-66 110.267-124.267 170.8-180.667 110.4-102.933 214.667-200.267 214.667-327.733h85.333c0 127.6 104.267 224.8 214.667 327.733 60.533 56.4 123.067 114.667 170.8 180.667 56.4 77.867 83.867 155.867 83.867 238.133 0 152.933-124.4 277.333-277.333 277.333zM711.2 304.8c-75.6-70.533-152.933-142.667-199.2-228.133-46.267 85.467-123.467 157.6-199.2 228.133-116.933 109.2-227.467 212.133-227.467 356.533 0 105.867 86.133 192 192 192s192-86.133 192-192v-21.333h85.333v21.333c0 105.867 86.133 192 192 192s192-86.133 192-192c0-144.4-110.533-247.333-227.467-356.533z" />
<glyph unicode="&#xe9e8;" glyph-name="heart-shiny" d="M746.667 938.667c-98.667 0-185.467-51.867-234.667-129.733-49.2 77.867-136 129.733-234.667 129.733-152.933 0-277.333-124.4-277.333-277.333 0-82.267 27.467-160.267 83.867-238.133 47.733-66 110.267-124.267 170.8-180.667 110.4-102.933 214.667-200.267 214.667-327.733h85.333c0 127.6 104.267 224.8 214.667 327.733 60.533 56.4 123.067 114.667 170.8 180.667 56.4 77.867 83.867 155.867 83.867 238.133 0 152.933-124.4 277.333-277.333 277.333zM711.2 304.8c-75.6-70.533-152.933-142.667-199.2-228.133-46.267 85.467-123.467 157.6-199.2 228.133-116.933 109.2-227.467 212.133-227.467 356.533 0 105.867 86.133 192 192 192s192-86.133 192-192v-21.333h85.333v21.333c0 105.867 86.133 192 192 192s192-86.133 192-192c0-144.4-110.533-247.333-227.467-356.533zM746.667 810.667h-21.333v-42.667h21.333c58.8 0 106.667-47.867 106.667-106.667v-21.333h42.667v21.333c0 82.4-66.933 149.333-149.333 149.333z" />
<glyph unicode="&#xe9e9;" glyph-name="star" d="M1022.667 522.667c-4.133 16-17.067 28.133-33.333 31.2l-308.133 59.067-130 300c-6.8 15.6-22.133 25.733-39.2 25.733s-32.4-10.133-39.2-25.733l-130-300-308.133-59.067c-16.267-3.067-29.2-15.2-33.333-31.2s1.333-32.933 14-43.467l235.467-196.133-78.8-315.333c-4.133-16.533 2-34 15.6-44.4 13.6-10.267 32.133-11.467 46.933-3.067l277.467 158.533 277.467-158.533c6.533-3.733 13.867-5.6 21.2-5.6 9.067 0 18.133 2.933 25.733 8.667 13.6 10.267 19.733 27.733 15.6 44.4l-78.8 315.333 235.467 196.133c12.667 10.533 18.133 27.467 14 43.467zM698 331.467c-12.533-10.533-18-27.2-14.133-43.067l61.2-244.4-211.867 121.067c-6.533 3.733-13.867 5.6-21.2 5.6s-14.667-1.867-21.2-5.6l-211.867-121.067 61.067 244.267c4 15.867-1.467 32.667-14.133 43.067l-186.667 155.733 241.733 46.4c13.867 2.667 25.467 12 31.067 24.933l100 230.267 99.867-230.4c5.6-12.933 17.2-22.267 31.067-24.933l241.733-46.4-186.667-155.467z" />
<glyph unicode="&#xe9ea;" glyph-name="star-half" d="M1023.333 521.2c-1.867 7.733-8 13.733-15.6 15.6l-320 78.133-134.8 310.933c-3.467 7.733-11.067 12.8-19.6 12.8h-21.333c-16.667 0-32.267-9.867-39.2-25.733l-130-300-308.133-59.067c-16.267-3.067-29.2-15.2-33.333-31.2s1.333-32.933 14-43.467l235.467-196.133-78.8-315.333c-4.133-16.533 2-34 15.6-44.4 7.6-5.733 16.667-8.667 25.733-8.667 7.333 0 14.533 1.867 21.2 5.6l288.8 165.067h14.8l280.267-167.6c3.333-2 7.2-3.067 10.933-3.067 4.4 0 8.8 1.333 12.533 4 6.933 5.067 10.133 13.6 8.267 22l-77.2 342.4 244 216.933c5.867 5.333 8.4 13.467 6.4 21.2zM469.333 152.8l-190.4-108.8 61.067 244.267c4 15.867-1.467 32.667-14.133 43.067l-186.667 155.733 241.733 46.4c13.867 2.667 25.467 12 31.067 24.933l57.2 132v-537.6zM735.2 306.667c-5.733-5.2-8.4-13.067-6.667-20.667l69.067-306.133-242.667 145.067c-0.133 0.133-0.267 0.133-0.4 0.267 0 0.933 0.133 1.867 0.133 2.8v686.533l98.133-226.267c2.667-6.133 8-10.667 14.533-12.267l290.8-71.067-222.933-198.267z" />
<glyph unicode="&#xe9eb;" glyph-name="star-empty" d="M1023.333 521.2c-1.867 7.733-8 13.733-15.6 15.6l-320.667 78.267-156 311.867c-3.6 7.2-10.933 11.733-19.067 11.733s-15.467-4.533-19.067-11.733l-155.867-311.867-320.8-78.4c-7.733-1.867-13.733-7.867-15.6-15.6-2-7.6 0.533-15.733 6.533-21.067l243.867-216.933-77.2-342.4c-1.867-8.133 1.2-16.667 7.867-21.733s15.6-5.733 23.067-1.867l307.2 165.333 307.2-165.2c3.2-1.733 6.667-2.533 10.133-2.533 4.533 0 9.067 1.467 12.933 4.4 6.667 5.067 9.733 13.467 7.867 21.733l-77.2 342.4 244 216.933c5.867 5.2 8.4 13.333 6.4 21.067zM735.2 306.667c-5.733-5.2-8.4-13.067-6.667-20.667l69.733-309.067-276.133 148.533c-3.2 1.733-6.667 2.533-10.133 2.533s-6.933-0.8-10.133-2.533l-276.133-148.533 69.733 309.067c1.733 7.6-0.8 15.467-6.667 20.667l-222.933 198.267 290.8 71.067c6.133 1.467 11.2 5.6 14 11.2l141.333 282.4 141.2-282.533c2.8-5.6 7.867-9.733 14-11.2l290.8-71.067-222.8-198.133z" />
<glyph unicode="&#xeaa9;" glyph-name="bookmark" d="M768 896h-512c-47.067 0-85.333-38.267-85.333-85.333v-810.667c0-17.2 10.4-32.8 26.4-39.467s34.267-2.933 46.533 9.2l268.4 268.533 268.533-268.533c8.133-8.133 19.067-12.533 30.133-12.533 5.467 0 11.067 1.067 16.267 3.2 16 6.667 26.4 22.133 26.4 39.467v810.8c0 47.067-38.267 85.333-85.333 85.333zM768 103.067l-225.867 225.733c-8.267 8.267-19.2 12.533-30.133 12.533s-21.867-4.133-30.133-12.533l-225.867-225.733v707.6h512v-707.6z" />
<glyph unicode="&#xeaab;" glyph-name="bookmark-plus" d="M981.333 661.334c0 152.933-124.4 277.333-277.333 277.333-78.533 0-149.467-32.8-199.867-85.333h-290.8c-47.067 0-85.333-38.267-85.333-85.333v-810.667c0-17.2 10.4-32.8 26.4-39.467s34.267-2.933 46.533 9.2l268.4 268.533 268.533-268.533c8.133-8.133 19.067-12.533 30.133-12.533 5.467 0 11.067 1.067 16.267 3.2 16 6.667 26.4 22.133 26.4 39.467v448.133c100.133 41.867 170.667 140.8 170.667 256zM725.333 60.4l-225.867 225.733c-16.667 16.667-43.733 16.667-60.4 0l-225.733-225.733v707.6h234.667c-13.733-32.8-21.333-68.933-21.333-106.667 0-152.933 124.4-277.333 277.333-277.333 7.2 0 14.267 0.267 21.333 0.8v-324.4zM704 426.667c-129.333 0-234.667 105.333-234.667 234.667s105.333 234.667 234.667 234.667 234.667-105.333 234.667-234.667-105.333-234.667-234.667-234.667zM725.333 768h-42.667v-85.333h-85.333v-42.667h85.333v-85.333h42.667v85.333h85.333v42.667h-85.333z" />
<glyph unicode="&#xeaac;" glyph-name="bookmark-minus" d="M981.333 661.334c0 152.933-124.4 277.333-277.333 277.333-78.533 0-149.467-32.8-199.867-85.333h-290.8c-47.067 0-85.333-38.267-85.333-85.333v-810.667c0-17.2 10.4-32.8 26.4-39.467s34.267-2.933 46.533 9.2l268.4 268.533 268.533-268.533c8.133-8.133 19.067-12.533 30.133-12.533 5.467 0 11.067 1.067 16.267 3.2 16 6.667 26.4 22.133 26.4 39.467v448.133c100.133 41.867 170.667 140.8 170.667 256zM725.333 60.4l-225.867 225.733c-16.667 16.667-43.733 16.667-60.4 0l-225.733-225.733v707.6h234.667c-13.733-32.8-21.333-68.933-21.333-106.667 0-152.933 124.4-277.333 277.333-277.333 7.2 0 14.267 0.267 21.333 0.8v-324.4zM704 426.667c-129.333 0-234.667 105.333-234.667 234.667s105.333 234.667 234.667 234.667 234.667-105.333 234.667-234.667-105.333-234.667-234.667-234.667zM597.333 682.667h213.333v-42.667h-213.333v42.667z" />
<glyph unicode="&#xec2d;" glyph-name="heart2" d="M746.667 896c-72.267 0-141.6-27.733-195.2-78.267-15.067-14.267-28.267-29.733-39.467-46.133-11.2 16.4-24.4 31.867-39.467 46.133-53.6 50.533-122.933 78.267-195.2 78.267-152.933 0-277.333-124.4-277.333-277.333 0-92.667 26.667-185.333 79.2-275.467 41.067-70.4 98-139.467 169.333-205.067 120.133-110.667 238.8-173.333 243.733-176 6.133-3.2 13.067-4.933 19.867-4.933s13.6 1.6 19.867 4.933c4.933 2.667 123.733 65.333 243.733 176 71.2 65.6 128.267 134.667 169.333 205.067 52.267 90.133 78.933 182.8 78.933 275.467 0 152.933-124.4 277.333-277.333 277.333zM719.2 202.267c-84.267-77.867-169.6-131.333-207.2-153.333-86.533 50.667-426.667 268.8-426.667 569.733 0 105.867 86.133 192 192 192 50.4 0 98.933-19.6 136.667-55.067 35.2-33.067 55.333-75.2 55.333-115.6h85.333c0 40.4 20.133 82.533 55.333 115.6 37.733 35.467 86.267 55.067 136.667 55.067 105.867 0 192-86.133 192-192 0-176.533-119.333-323.867-219.467-416.4z" />
<glyph unicode="&#xec2e;" glyph-name="heart3" d="M746.667 896c-72.267 0-141.6-27.733-195.2-78.267-15.067-14.267-28.267-29.733-39.467-46.133-11.2 16.4-24.4 31.867-39.467 46.133-53.6 50.533-122.933 78.267-195.2 78.267-152.933 0-277.333-124.4-277.333-277.333 0-92.667 26.667-185.333 79.2-275.467 41.067-70.4 98-139.467 169.333-205.067 120.133-110.667 238.8-173.333 243.733-176 6.133-3.2 13.067-4.933 19.867-4.933s13.6 1.6 19.867 4.933c4.933 2.667 123.733 65.333 243.733 176 71.2 65.6 128.267 134.667 169.333 205.067 52.267 90.133 78.933 182.8 78.933 275.467 0 152.933-124.4 277.333-277.333 277.333zM719.2 202.267c-84.267-77.867-169.6-131.333-207.2-153.333-86.533 50.667-426.667 268.8-426.667 569.733 0 105.867 86.133 192 192 192 50.4 0 98.933-19.6 136.667-55.067 35.2-33.067 55.333-75.2 55.333-115.6h85.333c0 40.4 20.133 82.533 55.333 115.6 37.733 35.467 86.267 55.067 136.667 55.067 105.867 0 192-86.133 192-192 0-176.533-119.333-323.867-219.467-416.4zM746.667 768h-21.333v-42.667h21.333c58.8 0 106.667-47.867 106.667-106.667v-21.333h42.667v21.333c0 82.4-66.933 149.333-149.333 149.333z" />
<glyph unicode="&#xec2f;" glyph-name="heart-plus" d="M1000.4 467.6c-2.133-7.067-4.533-14-7.067-20.933 19.6-38 30.667-81.067 30.667-126.667 0-152.933-124.4-277.333-277.333-277.333-25.733 0-50.8 3.6-74.4 10.133-77.333-57.333-137.733-89.2-140.4-90.667v0c-6.133-3.2-12.933-4.933-19.733-4.933s-13.6 1.6-19.733 4.933c-4.933 2.667-123.733 65.333-243.733 176-71.2 65.6-128.267 134.667-169.333 205.067-52.667 90.133-79.333 182.8-79.333 275.467 0 152.933 124.4 277.333 277.333 277.333 72.267 0 141.6-27.733 195.2-78.267 15.067-14.267 28.267-29.733 39.467-46.133 11.2 16.4 24.4 31.867 39.467 46.133 53.6 50.533 122.933 78.267 195.2 78.267 152.933 0 277.333-124.4 277.333-277.333 0-50.4-7.867-101.2-23.6-151.067zM746.667 554.667c-129.333 0-234.667-105.333-234.667-234.667s105.333-234.667 234.667-234.667 234.667 105.333 234.667 234.667-105.333 234.667-234.667 234.667zM304.8 202.267c84.267-77.867 169.6-131.333 207.2-153.333 16.4 9.6 42 25.2 72.533 46.133-69.733 50.533-115.2 132.533-115.2 224.933 0 152.933 124.4 277.333 277.333 277.333 69.6 0 133.2-25.733 182-68.267 6.667 29.867 10 59.867 10 89.6 0 105.867-86.133 192-192 192-50.4 0-98.933-19.6-136.667-55.067-35.2-33.067-55.333-75.2-55.333-115.6h-85.333c0 40.4-20.133 82.533-55.333 115.6-37.733 35.467-86.267 55.067-136.667 55.067-105.867 0-192-86.133-192-192 0-176.533 119.333-323.867 219.467-416.4zM768 213.334h-42.667v85.333h-85.333v42.667h85.333v85.333h42.667v-85.333h85.333v-42.667h-85.333z" />
<glyph unicode="&#xedca;" glyph-name="thumbs-up" d="M878.8 405.334c11.067 19.2 17.2 41.333 17.2 64 0 70.533-57.467 128-128 128h-76c23.467 44.4 32.933 94.933 32.933 136 0.533 43.467-7.467 79.6-23.733 107.467-16.8 28.933-42.267 48-71.867 53.467-25.2 4.8-51.6-0.8-74.267-15.467-20.933-13.6-37.2-34-47.2-59.067-48.533-95.467-103.6-123.467-173.2-158.8-36.4-18.533-74-37.6-113.733-67.733-28.933-22-52.667-50.8-68.667-83.6-16-32.533-24.4-68.933-24.4-105.333v-149.467c0-88.667 48.267-169.067 126-210 0 0 0.133 0 0.133-0.133 109.467-57.2 232.4-87.333 355.333-87.333h116c70.533 0 128 57.467 128 128 0 10.133-1.2 20-3.467 29.6 28.667 23.867 46.133 59.733 46.133 98.4 0 22.667-6 44.8-17.2 64 11.067 19.2 17.2 41.333 17.2 64s-6 44.8-17.2 64zM762.8 106c3.467-6.267 5.2-13.333 5.2-20.667 0-23.467-19.2-42.667-42.667-42.667h-115.867c-109.2 0-218.4 26.8-315.867 77.733-49.6 26.133-80.267 77.6-80.267 134.4v149.467c0 47.467 22.267 92.667 59.467 120.933 33.6 25.467 67.733 42.8 100.667 59.6 73.867 37.6 150.267 76.4 211.733 198.4 0.667 1.333 1.333 2.667 1.867 4.133 6.4 17.067 18.533 24.667 26.667 23.2 10.8-2 26.667-24 26-76.4 0-0.133 0-0.4 0-0.533 0-50-20.133-115.867-64.267-142.4-16.4-9.867-24.267-29.467-19.2-48 5.067-18.4 21.867-31.2 41.067-31.2h170.667c23.467 0 42.667-19.2 42.667-42.667 0-10.533-3.867-20.667-10.8-28.4-8.133-9.067-19.733-14.267-31.867-14.267h-85.333v-42.667h85.333c10.4 0 20.533-3.867 28.267-10.667 9.2-8.133 14.4-19.733 14.4-32s-5.2-23.867-14.4-32c-7.733-6.8-17.733-10.667-28.133-10.667 0 0-0.133 0-0.133 0v0h-85.333v-42.667h85.333c0 0 0.133 0 0.133 0 12 0 23.6-5.2 31.733-14.267 6.933-7.733 10.8-17.867 10.8-28.4 0-16.4-9.333-31.2-23.867-38.267-5.867-2.933-12.267-4.4-18.8-4.4h-128v-42.667h85.333c15.467 0 29.867-8.4 37.467-22z" />
<glyph unicode="&#xedcb;" glyph-name="thumbs-down" d="M896 512c0 22.667-6 44.8-17.2 64 11.067 19.2 17.2 41.333 17.2 64 0 38.667-17.467 74.533-46.133 98.4 2.267 9.6 3.467 19.6 3.467 29.6 0 70.533-57.467 128-128 128h-115.867c-122.933 0-245.867-30.267-355.333-87.333 0 0-0.133 0-0.133-0.133-77.733-40.933-126-121.333-126-210v-149.467c0-36.4 8.4-72.8 24.4-105.333 16.133-32.8 39.867-61.6 68.667-83.6 39.6-30.133 77.333-49.333 113.733-67.733 69.6-35.333 124.667-63.333 173.2-158.8 10-25.067 26.133-45.333 47.2-59.067 22.667-14.8 48.933-20.267 74.267-15.467 29.467 5.6 54.933 24.533 71.867 53.467 16.267 27.867 24.267 64.133 23.733 107.467 0 41.067-9.467 91.6-32.933 136h76c70.533 0 128 57.467 128 128 0 22.667-6 44.8-17.2 64 11.067 19.2 17.067 41.333 17.067 64zM725.333 725.334h-85.333v-42.667h128c6.667 0 12.933-1.467 18.8-4.4 14.533-7.067 23.867-21.867 23.867-38.267 0-10.533-3.867-20.667-10.8-28.4-8.133-9.067-19.6-14.133-31.733-14.267 0 0-0.133 0-0.133 0h-85.333v-42.667h85.333c0 0 0.133 0 0.133 0 10.4 0 20.4-3.867 28.133-10.667 9.2-8.133 14.4-19.733 14.4-32s-5.2-23.867-14.4-32c-7.733-6.8-17.733-10.667-28.267-10.667h-85.333v-42.667h85.333c12.133 0 23.733-5.2 31.867-14.267 6.933-7.733 10.8-17.867 10.8-28.4 0-23.467-19.2-42.667-42.667-42.667h-170.667c-19.2 0-36-12.8-41.067-31.333s2.667-38.133 19.2-48c44.133-26.533 64.267-92.4 64.267-142.4 0-0.133 0-0.4 0-0.533 0.667-52.267-15.2-74.267-26-76.4-8.133-1.467-20.133 6-26.667 23.2-0.533 1.467-1.067 2.8-1.867 4.133-61.333 122-137.733 160.8-211.733 198.4-33.067 16.8-67.2 34.133-100.667 59.6-37.2 28.267-59.467 73.467-59.467 120.933v149.6c0 56.8 30.8 108.4 80.267 134.4 97.333 50.8 206.533 77.733 315.867 77.733h115.867c23.467 0 42.667-19.2 42.667-42.667 0-7.333-1.867-14.4-5.2-20.667-7.6-13.6-22-22-37.467-22z" />
<glyph unicode="&#xedcc;" glyph-name="thumbs-up2" d="M969.2 451.067c-24 90.133-82.933 103.6-115.867 103.6h-88.8c23.467 42.8 46.133 102.267 46.133 172.933 0 28-8.933 57.733-24.933 83.867-17.067 27.733-47.733 43.6-80.267 41.6-32.267-2-60.4-21.6-73.6-50.8-39.333-86.933-192.667-208.533-248.4-248-0.267-0.267-0.667-0.4-0.933-0.667-2.267-1.733-4.4-3.333-6.533-5.2-13.867 28.933-43.333 48.933-77.333 48.933h-234.667c-11.733 0-21.333-9.6-21.333-21.333v-512c0-11.733 9.6-21.333 21.333-21.333h234.667c36.4 0 67.467 22.8 79.733 54.933 10.4-8.133 21.6-15.467 33.6-21.6 0 0 0.133 0 0.133 0 102.133-52.533 205.067-75.867 333.6-75.867 45.067 0 85.733 14.933 120.933 44.267 27.6 23.067 51.333 54.933 70.4 94.667 30.4 63.2 44.267 138.133 44.267 180.933 0 34.133 0 85.6-12.133 131.067zM298.667 128h-213.333v384h213.333v-384zM860.133 175.867c-28.8-60-67.333-90.533-114.4-90.533-114.267 0-205.2 20.533-294.533 66.4-41.467 21.6-67.2 64-67.2 110.8v123.2c0 38.933 18.4 76 49.2 99.333 6.133 4.4 56.933 40.8 114.4 91.2 83.067 72.667 137.467 136.933 161.867 190.933 0.267 0.533 0.4 0.8 1.333 0.8 1.467 0.133 1.867-0.533 2.133-1.067 7.733-12.533 12.4-27.2 12.4-39.2 0-106.933-70.933-183.467-73.333-186-12-12.267-15.467-30.4-8.8-46.267s22.267-26.133 39.467-26.133h170.667c7.867 0 22.667 0 33.467-40.267 9.2-34.533 9.2-79.333 9.2-108.933 0-26.933-9.733-89.867-35.867-144.267zM213.333 256c-23.467 0-42.667-19.2-42.667-42.667s19.2-42.667 42.667-42.667 42.667 19.2 42.667 42.667-19.2 42.667-42.667 42.667zM213.333 213.334c0 0 0 0 0 0v0z" />
<glyph unicode="&#xedcd;" glyph-name="thumbs-down2" d="M937.067 714.4c-19.067 39.733-42.667 71.467-70.4 94.667-35.2 29.333-75.867 44.267-120.933 44.267-128.533 0-231.467-23.467-333.6-75.867 0 0-0.133 0-0.133 0-12-6.267-23.2-13.467-33.6-21.6-12.267 32-43.333 54.8-79.733 54.8h-234.667c-11.733 0-21.333-9.6-21.333-21.333v-512c0-11.733 9.6-21.333 21.333-21.333h234.667c34 0 63.467 20 77.2 48.8 2.133-1.733 4.4-3.467 6.533-5.2 0.267-0.267 0.667-0.533 0.933-0.667 55.733-39.467 209.067-160.933 248.4-247.867 13.2-29.333 41.467-48.8 73.733-50.933 1.867-0.133 3.733-0.133 5.6-0.133 30.4 0 58.533 15.6 74.533 41.733 16.133 26.133 24.933 56 24.933 84 0 70.667-22.667 130.267-46.133 172.933h88.933c32.933 0 91.867 13.467 115.867 103.6 12.133 45.333 12.133 96.933 12.133 130.933 0 42.933-13.867 117.867-44.267 181.2zM298.667 341.334h-213.333v384h213.333v-126.267h0.133c-0.133-2.8-0.133-5.467-0.133-8.267v-249.467zM886.8 424.267c-10.8-40.267-25.6-40.267-33.467-40.267h-170.667c-17.2 0-32.933-10.267-39.467-26.133-6.667-15.867-3.2-34 8.8-46.267 2.4-2.533 73.333-79.067 73.333-186 0-12-4.667-26.667-12.4-39.333-0.267-0.533-0.667-1.2-2.133-1.067-0.933 0-1.067 0.267-1.333 0.8-24.4 54-78.933 118.267-161.867 190.933-57.467 50.267-108.267 86.8-114.4 91.2-30.8 23.333-49.2 60.4-49.2 99.333v123.2c0 46.8 25.733 89.333 67.2 110.8 89.467 46 180.267 66.4 294.533 66.4 47.067 0 85.467-30.4 114.4-90.533 26.133-54.533 35.867-117.333 35.867-144.267 0-29.333 0-74.133-9.2-108.8zM213.333 469.334c-23.467 0-42.667-19.2-42.667-42.667s19.2-42.667 42.667-42.667 42.667 19.2 42.667 42.667c0 23.467-19.2 42.667-42.667 42.667zM213.333 426.667c0 0 0 0 0 0v0z" />
</font>
</defs>
</svg>
